<svg xmlns="http://www.w3.org/2000/svg" width="14.81" height="12.642" viewBox="577.595 228.679 14.81 12.642"><g data-name="noun_Love_1033573"><path d="M591.254 229.83a3.934 3.934 0 0 0-2.784-1.15 3.96 3.96 0 0 0-2.784 1.15l-.654.654-.653-.653a3.934 3.934 0 0 0-2.784-1.152c-1.602 0-3.189.965-3.826 2.878a3.642 3.642 0 0 0 .902 3.686l5.88 5.88a.648.648 0 0 0 .933 0l5.739-5.74a3.887 3.887 0 0 0 .031-5.552Z" stroke-linejoin="round" stroke-linecap="round" stroke-width="2" stroke="#fff" fill="transparent" data-name="Path 2496"/></g></svg>