<svg xmlns="http://www.w3.org/2000/svg" width="16.229" height="10.386" viewBox="1.999 7.09 16.229 10.386"><g data-name="9"><path d="M8.375 12.154a1.739 1.739 0 1 1 0 .1z" fill="#fefefe" fill-rule="evenodd" data-name="Ellipse 321"/><path d="m17.498 10.515-.632-.631a9.557 9.557 0 0 0-13.504 0l-.632.631a2.504 2.504 0 0 0 0 3.536l.632.632a9.557 9.557 0 0 0 13.504 0l.632-.632a2.504 2.504 0 0 0 0-3.536Zm-7.384 4.637a2.898 2.898 0 1 1 0-5.796 2.898 2.898 0 0 1 0 5.796Z" fill="#fefefe" fill-rule="evenodd" data-name="Path 7949"/></g></svg>